<svg xmlns="http://www.w3.org/2000/svg" width="119" height="119" viewBox="0 0 119 119">
  <g id="Group_146905" data-name="Group 146905" transform="translate(-0.283 -0.253)">
    <rect id="Rectangle_22320" data-name="Rectangle 22320" width="119" height="119" transform="translate(0.283 0.253)" fill="none"/>
    <g id="Group_146906" data-name="Group 146906" transform="translate(10.321 17.847)">
      <path id="Path_104651" data-name="Path 104651" d="M202.15,99.246h-24.4V74.23a1.691,1.691,0,0,0-1.691-1.691h-42.99a1.691,1.691,0,0,0-1.691,1.691V99.245h-24.4a1.691,1.691,0,0,0-1.691,1.691v53.456a1.689,1.689,0,0,0,1.691,1.691h95.165a1.69,1.69,0,0,0,1.691-1.691V100.937a1.691,1.691,0,0,0-1.692-1.691ZM131.382,152.7h-22.7V102.627h22.707V152.7Zm21.495,0H146.63v-12.63h6.246Zm9.631,0h-6.249v-12.63h6.249Zm11.863,0h-8.48V138.381a1.691,1.691,0,0,0-1.691-1.691H144.939a1.691,1.691,0,0,0-1.691,1.691V152.7h-8.482V75.92h39.6Zm26.09,0H177.753V102.627H200.46ZM144.326,96.874h5.139v5.141a1.691,1.691,0,0,0,1.691,1.691h6.826a1.691,1.691,0,0,0,1.691-1.691V96.874h5.137a1.69,1.69,0,0,0,1.691-1.691V88.359a1.691,1.691,0,0,0-1.691-1.691h-5.137V81.531a1.691,1.691,0,0,0-1.691-1.691h-6.826a1.691,1.691,0,0,0-1.691,1.691v5.137h-5.139a1.691,1.691,0,0,0-1.691,1.691v6.824A1.689,1.689,0,0,0,144.326,96.874Zm1.691-6.824h5.139a1.691,1.691,0,0,0,1.691-1.691V83.223h3.444V88.36a1.69,1.69,0,0,0,1.691,1.691h5.137v3.441h-5.137a1.691,1.691,0,0,0-1.691,1.691v5.141h-3.444V95.183a1.691,1.691,0,0,0-1.691-1.691h-5.139Zm-5.155,29.167H150a1.691,1.691,0,0,0,1.691-1.691v-5.643A1.691,1.691,0,0,0,150,110.191h-9.138a1.692,1.692,0,0,0-1.691,1.691v5.643A1.69,1.69,0,0,0,140.862,119.216Zm1.691-5.644h5.755v2.261h-5.755Zm-27.095,5.644H124.6a1.69,1.69,0,0,0,1.691-1.691v-5.643a1.691,1.691,0,0,0-1.691-1.691h-9.138a1.692,1.692,0,0,0-1.691,1.691v5.643A1.691,1.691,0,0,0,115.458,119.216Zm1.692-5.644h5.755v2.261H117.15Zm-1.692,18.851H124.6a1.69,1.69,0,0,0,1.691-1.691V125.09A1.691,1.691,0,0,0,124.6,123.4h-9.138a1.692,1.692,0,0,0-1.691,1.691v5.643A1.689,1.689,0,0,0,115.458,132.423Zm1.692-5.641h5.755v2.26H117.15Zm-1.692,18.851H124.6a1.69,1.69,0,0,0,1.691-1.691V138.3a1.691,1.691,0,0,0-1.691-1.691h-9.138a1.691,1.691,0,0,0-1.691,1.691v5.643A1.69,1.69,0,0,0,115.458,145.633Zm1.692-5.643h5.755v2.26H117.15Zm67.386-20.774h9.138a1.691,1.691,0,0,0,1.691-1.691v-5.643a1.692,1.692,0,0,0-1.691-1.691h-9.138a1.691,1.691,0,0,0-1.691,1.691v5.643A1.69,1.69,0,0,0,184.536,119.217Zm1.692-5.644h5.755v2.261h-5.755Zm-1.692,18.851h9.138a1.69,1.69,0,0,0,1.691-1.691V125.09a1.691,1.691,0,0,0-1.691-1.691h-9.138a1.691,1.691,0,0,0-1.691,1.691v5.643A1.689,1.689,0,0,0,184.536,132.424Zm1.692-5.641h5.755v2.26h-5.755Zm-1.692,18.851h9.138a1.69,1.69,0,0,0,1.691-1.691V138.3a1.691,1.691,0,0,0-1.691-1.691h-9.138a1.691,1.691,0,0,0-1.691,1.691v5.643A1.69,1.69,0,0,0,184.536,145.634Zm1.692-5.643h5.755v2.26h-5.755Zm-28.784-28.109v5.643a1.69,1.69,0,0,0,1.691,1.691h9.138a1.691,1.691,0,0,0,1.691-1.691v-5.643a1.692,1.692,0,0,0-1.691-1.691h-9.138A1.691,1.691,0,0,0,157.444,111.882Zm3.383,1.691h5.755v2.261h-5.755Zm-19.965,18.854H150a1.691,1.691,0,0,0,1.691-1.691V125.09A1.691,1.691,0,0,0,150,123.4h-9.138a1.691,1.691,0,0,0-1.691,1.691v5.645A1.69,1.69,0,0,0,140.862,132.427Zm1.691-5.643h5.755v2.262h-5.755Zm25.719-3.383h-9.138a1.691,1.691,0,0,0-1.691,1.691v5.645a1.691,1.691,0,0,0,1.691,1.691h9.138a1.691,1.691,0,0,0,1.691-1.691v-5.645A1.69,1.69,0,0,0,168.273,123.4Zm-1.691,5.643h-5.755v-2.262h5.755Z" transform="translate(-105.295 -72.538)"/>
    </g>
  </g>
</svg>
