<svg xmlns="http://www.w3.org/2000/svg" width="119" height="119" viewBox="0 0 119 119">
  <g id="Group_146929" data-name="Group 146929" transform="translate(-0.283 0.39)">
    <g id="Group_146891" data-name="Group 146891" transform="translate(0 0)">
      <rect id="Rectangle_22320" data-name="Rectangle 22320" width="119" height="119" transform="translate(0.283 -0.39)" fill="none"/>
    </g>
    <g id="Group_146928" data-name="Group 146928" transform="translate(10.323 10.292)">
      <path id="Path_104743" data-name="Path 104743" d="M498.086,274.3h12.206a1.526,1.526,0,0,0,0-3.052H498.086a1.526,1.526,0,0,0,0,3.052Z" transform="translate(-422.179 -223.924)"/>
      <path id="Path_104744" data-name="Path 104744" d="M498.086,318.052h12.206a1.526,1.526,0,0,0,0-3.052H498.086a1.526,1.526,0,1,0,0,3.052Z" transform="translate(-422.179 -260.045)"/>
      <path id="Path_104745" data-name="Path 104745" d="M498.086,361.8h12.206a1.526,1.526,0,0,0,0-3.052H498.086a1.526,1.526,0,1,0,0,3.052Z" transform="translate(-422.179 -296.167)"/>
      <path id="Path_104746" data-name="Path 104746" d="M498.086,405.552h12.206a1.526,1.526,0,0,0,0-3.052H498.086a1.526,1.526,0,1,0,0,3.052Z" transform="translate(-422.179 -332.287)"/>
      <path id="Path_104747" data-name="Path 104747" d="M498.086,449.3h12.206a1.526,1.526,0,0,0,0-3.052H498.086a1.526,1.526,0,0,0,0,3.052Z" transform="translate(-422.179 -368.408)"/>
      <path id="Path_104748" data-name="Path 104748" d="M117.466,274.3h12.206a1.526,1.526,0,1,0,0-3.052H117.466a1.526,1.526,0,0,0,0,3.052Z" transform="translate(-107.93 -223.924)"/>
      <path id="Path_104749" data-name="Path 104749" d="M117.466,318.052h12.206a1.526,1.526,0,1,0,0-3.052H117.466a1.526,1.526,0,0,0,0,3.052Z" transform="translate(-107.93 -260.045)"/>
      <path id="Path_104750" data-name="Path 104750" d="M117.466,361.8h12.206a1.526,1.526,0,1,0,0-3.052H117.466a1.526,1.526,0,1,0,0,3.052Z" transform="translate(-107.93 -296.167)"/>
      <path id="Path_104751" data-name="Path 104751" d="M117.466,405.552h12.206a1.526,1.526,0,1,0,0-3.052H117.466a1.526,1.526,0,1,0,0,3.052Z" transform="translate(-107.93 -332.287)"/>
      <path id="Path_104752" data-name="Path 104752" d="M117.466,449.3h12.206a1.526,1.526,0,0,0,0-3.052H117.466a1.526,1.526,0,0,0,0,3.052Z" transform="translate(-107.93 -368.408)"/>
      <path id="Path_104753" data-name="Path 104753" d="M164.6,39.545h-.763V18.184a1.526,1.526,0,0,0-2.655-1.022l-8.025,8.88-8.025-8.88a1.526,1.526,0,0,0-2.655,1.022V39.545H139.42V15.133a3.051,3.051,0,0,0-3.052-3.052h-3.814V1.4a1.525,1.525,0,0,0-1.808-1.526L106.333,4.452a1.525,1.525,0,0,0-1.244,1.526v6.1h-3.814a3.051,3.051,0,0,0-3.052,3.052v5.34L70,40.308V97.524h97.65V42.6a3.051,3.051,0,0,0-3.052-3.052ZM98.224,94.473H73.048V41.833L98.224,24.172Zm9.918-87.23L129.5,3.239v8.842H108.142Zm4.577,42.982V45.648h12.206v4.577Zm12.206,3.052v4.577H112.719V53.277ZM112.719,42.6V38.019h12.206V42.6Zm0-7.629V30.39h12.206v4.577Zm0-7.629V22.761h12.206v4.577Zm0-7.629V15.133h12.206V19.71Zm-11.443-4.577h8.392V19.71h-8.392Zm0,7.629h8.392v4.577h-8.392Zm0,7.629h8.392v4.577h-8.392Zm0,7.629h8.392V42.6h-8.392Zm0,7.629h8.392v4.577h-8.392Zm0,7.629h8.392v4.577h-8.392Zm21.361,41.2h-7.629V79.216h7.629Zm6.1,0h-3.052V79.216a3.051,3.051,0,0,0-3.052-3.052h-7.629a3.051,3.051,0,0,0-3.052,3.052V94.473H108.9V73.112H128.74Zm7.629,0h-4.577V73.112a1.526,1.526,0,1,0,0-3.052H105.853a1.526,1.526,0,1,0,0,3.052V94.473h-4.577V60.906h35.093Zm0-36.619h-8.392V53.277h8.392Zm0-7.629h-8.392V45.648h8.392Zm0-7.629h-8.392V38.019h8.392Zm0-7.629h-8.392V30.39h8.392Zm0-7.629h-8.392V22.761h8.392Zm0-7.629h-8.392V15.133h8.392Zm24.413,2.441V39.545H157.73v-7.85a1.526,1.526,0,0,0-.4-1.022L155.2,28.315Zm-9.155,10.132,1.526-1.686,1.526,1.686v7.262h-3.052Zm-6.1-10.132,5.569,6.165-2.129,2.358h0a1.526,1.526,0,0,0-.4,1.022v7.85h-3.044ZM164.6,94.473H139.421V42.6H164.6Z" transform="translate(-69.996 0.152)"/>
    </g>
  </g>
</svg>
