<svg xmlns="http://www.w3.org/2000/svg" width="120" height="119" viewBox="0 0 120 119">
  <g id="Group_146891" data-name="Group 146891" transform="translate(-0.206 -0.253)">
    <rect id="Rectangle_22320" data-name="Rectangle 22320" width="120" height="119" transform="translate(0.206 0.253)" fill="none"/>
    <g id="Group_146867" data-name="Group 146867" transform="translate(0.506 15.253)">
      <path id="Path_104644" data-name="Path 104644" d="M248.868,227.487a9.237,9.237,0,1,0-9.237,9.237A9.247,9.247,0,0,0,248.868,227.487Zm-15.383,0a6.146,6.146,0,1,1,6.146,6.146A6.153,6.153,0,0,1,233.485,227.487Z" transform="translate(-203.911 -191.762)" fill="#101010"/>
      <path id="Path_104645" data-name="Path 104645" d="M228.107,185.4a1.545,1.545,0,0,0-.04-3.09h-.039a19.237,19.237,0,0,0-12.488,5.055,1.546,1.546,0,0,0,2.092,2.276,16.125,16.125,0,0,1,10.474-4.241Z" transform="translate(-192.796 -165.739)" fill="#101010"/>
      <path id="Path_104646" data-name="Path 104646" d="M213.5,161.949a1.546,1.546,0,1,0,.344-3.073,25.7,25.7,0,0,0-22.637,9.171,1.545,1.545,0,1,0,2.385,1.965,22.609,22.609,0,0,1,19.909-8.063Z" transform="translate(-175.271 -148.659)" fill="#101010"/>
      <path id="Path_104647" data-name="Path 104647" d="M261.428,297.726a1.545,1.545,0,0,0,.038,3.09h.041a19.245,19.245,0,0,0,12.487-5.061,1.546,1.546,0,1,0-2.094-2.273,16.131,16.131,0,0,1-10.471,4.244Z" transform="translate(-225.297 -245.938)" fill="#101010"/>
      <path id="Path_104648" data-name="Path 104648" d="M270.205,302.326a22.615,22.615,0,0,1-19.909,8.063,1.546,1.546,0,0,0-.344,3.073,25.7,25.7,0,0,0,22.635-9.171,1.544,1.544,0,0,0-2.383-1.965Z" transform="translate(-217.081 -252.23)" fill="#101010"/>
      <path id="Path_104649" data-name="Path 104649" d="M410.517,317.776a1.544,1.544,0,0,0,1.5.068l16.712-8.357a1.545,1.545,0,0,0,0-2.764l-16.712-8.356a1.545,1.545,0,0,0-2.235,1.382v16.713A1.541,1.541,0,0,0,410.517,317.776Zm2.358-15.526,11.711,5.855-11.711,5.857Z" transform="translate(-333.786 -249.653)" fill="#101010"/>
      <path id="Path_104650" data-name="Path 104650" d="M251.847,152.1H205.355a34.723,34.723,0,0,0-2.111-7.529,35.725,35.725,0,1,0-33,49.123A34.981,34.981,0,0,0,180.891,192v7.2c0,.005,0,.01,0,.015v8.558a1.545,1.545,0,0,0,1.546,1.546h69.412a1.545,1.545,0,0,0,1.546-1.546V153.648a1.545,1.545,0,0,0-1.545-1.546Zm-13.88,3.092h4.621v5.469h-4.621Zm-7.713,0h4.622v5.469h-4.622Zm-7.714,0h4.622v5.469h-4.622Zm-7.713,0h4.622v5.469h-4.622Zm-7.711,0h4.621v5.469h-4.621Zm-24.832,33.075c-.1.041-.2.08-.3.112l-.006,0-.094.032a32.625,32.625,0,1,1,15.268-48.74,31.132,31.132,0,0,1,3.232,6.06,31.594,31.594,0,0,1,2.119,8.107q.178,1.376.238,2.743a32.679,32.679,0,0,1-20.454,31.682Zm6.316,17.962h-4.618v-5.467H188.6Zm7.713,0h-4.622v-5.467h4.622Zm7.714,0H199.4v-5.467h4.622Zm7.711,0h-4.621v-5.467h4.621Zm7.712,0h-4.622v-5.467h4.622Zm7.713,0h-4.622v-5.467h4.622Zm7.714,0h-4.622v-5.467h4.622Zm7.711,0h-4.621v-5.467h4.621Zm7.713,0h-4.622v-5.467H250.3Zm0-8.559H183.982v-6.757c.46-.194.9-.42,1.346-.632.369-.174.746-.334,1.107-.52.547-.28,1.072-.591,1.6-.9.312-.18.634-.346.938-.535.624-.387,1.222-.805,1.816-1.228.189-.134.388-.253.573-.39q1.153-.852,2.227-1.788c.216-.189.413-.393.624-.586.489-.447.98-.895,1.442-1.368.266-.273.511-.563.767-.843.382-.415.767-.826,1.129-1.258.265-.318.508-.652.762-.979.325-.417.653-.83.958-1.26.249-.351.475-.715.711-1.075.279-.426.563-.849.824-1.287.226-.378.431-.769.643-1.156.239-.437.481-.871.7-1.318.2-.4.378-.814.563-1.223.2-.447.4-.895.585-1.351.168-.421.32-.849.472-1.277.164-.459.326-.919.471-1.386.136-.438.257-.88.375-1.323.126-.47.249-.941.356-1.417.1-.451.19-.9.274-1.36.044-.236.1-.469.142-.706H250.3Zm0-37.011h-4.622v-5.469H250.3Z" transform="translate(-134.41 -122.261)" fill="#101010"/>
    </g>
  </g>
</svg>
