<svg xmlns="http://www.w3.org/2000/svg" width="120" height="120" viewBox="0 0 120 120">
  <g id="Group_146914" data-name="Group 146914" transform="translate(-0.206 0.033)">
    <rect id="Rectangle_22320" data-name="Rectangle 22320" width="120" height="120" transform="translate(0.206 -0.033)" fill="none"/>
    <g id="Group_146913" data-name="Group 146913" transform="translate(12.406 12.374)">
      <path id="Path_104757" data-name="Path 104757" d="M266.09,153.909a3.133,3.133,0,1,0,3.133-3.133A3.131,3.131,0,0,0,266.09,153.909Z" transform="translate(-233.327 -126.345)" stroke="#000" stroke-width="0.5"/>
      <path id="Path_104758" data-name="Path 104758" d="M156.922,23.612a1.111,1.111,0,0,0,.794-.33,29.3,29.3,0,0,1,41.385,0,1.123,1.123,0,0,0,1.589-1.589,31.536,31.536,0,0,0-44.561,0,1.13,1.13,0,0,0,0,1.589,1.115,1.115,0,0,0,.795.33Z" transform="translate(-142.52 -12.476)" stroke="#000" stroke-width="0.5"/>
      <path id="Path_104759" data-name="Path 104759" d="M221.742,68.912a1.111,1.111,0,0,0,.794-.33,1.13,1.13,0,0,0,0-1.588,23.1,23.1,0,0,0-32.63,0,1.123,1.123,0,1,0,1.588,1.588,20.844,20.844,0,0,1,29.453,0,1.113,1.113,0,0,0,.795.33Z" transform="translate(-170.33 -51.809)" stroke="#000" stroke-width="0.5"/>
      <path id="Path_104760" data-name="Path 104760" d="M243.647,114.146a1.111,1.111,0,0,0,.794-.33,1.13,1.13,0,0,0,0-1.589,14.628,14.628,0,0,0-20.684,0,1.123,1.123,0,0,0,1.588,1.589,12.394,12.394,0,0,1,17.507,0,1.112,1.112,0,0,0,.795.33Z" transform="translate(-198.202 -91.08)" stroke="#000" stroke-width="0.5"/>
      <path id="Path_104761" data-name="Path 104761" d="M442.221,95.114h-8V90.362a9.758,9.758,0,1,0-19.516,0v4.752h-8a1.132,1.132,0,0,0-1.124,1.124v29.588a8.361,8.361,0,0,0,8.349,8.349h21.059a8.361,8.361,0,0,0,8.349-8.349V96.238a1.1,1.1,0,0,0-1.109-1.124Zm-25.27-4.751a7.509,7.509,0,0,1,15.018,0v4.752H416.951Zm-9.114,7h6.88v3.207a1.124,1.124,0,0,0,2.248,0V97.362h15.019v3.207a1.124,1.124,0,0,0,2.248,0V97.362h6.88v25.511H407.838Zm33.26,28.464a6.106,6.106,0,0,1-6.1,6.1H413.938a6.106,6.106,0,0,1-6.1-6.1v-.7H441.1Z" transform="translate(-348.17 -68.569)" stroke="#000" stroke-width="0.5"/>
      <path id="Path_104762" data-name="Path 104762" d="M143.837,220.174H105.376l-1.709-6.775H143.6a1.135,1.135,0,0,0,1.094-.854l.3-1.169a1.122,1.122,0,0,0-2.174-.555l-.075.315H127.755v-6.1h7.239a1.124,1.124,0,0,0,0-2.248h-7.239v-5.921h6.925a1.124,1.124,0,0,0,0-2.248h-6.925v-5.936h6.925a1.124,1.124,0,1,0,0-2.248h-6.925v-6.1h6.925a1.124,1.124,0,1,0,0-2.248h-39.9l-1.739-6.94a1.125,1.125,0,0,0-1.094-.854H81.74a1.124,1.124,0,0,0,0,2.249h9.323L103.4,221.582a1.125,1.125,0,0,0,1.094.854H143.84a3.628,3.628,0,0,1,0,7.255h-2.623a6.1,6.1,0,0,0-11.991,0h-7.569a6.1,6.1,0,0,0-11.991,0h-4.632a1.124,1.124,0,1,0,0,2.248h4.632a6.1,6.1,0,0,0,11.991,0h7.569a6.1,6.1,0,0,0,11.991,0h2.623a5.883,5.883,0,0,0,0-11.767ZM101,202.8l-1.5-5.936h10.972V202.8Zm9.488,2.248v6.1h-7.375l-1.529-6.1ZM98.945,194.617l-1.5-5.936h13.04v5.936Zm26.53,16.532H112.719v-6.1h12.756Zm0-8.348H112.719v-5.936h12.756Zm0-8.184H112.719v-5.936h12.756Zm0-8.2H112.719v-6.1h12.756Zm-14.989-6.1v6.1H96.876l-1.529-6.1Zm5.171,54.365a3.867,3.867,0,1,1,3.867-3.867A3.877,3.877,0,0,1,115.657,234.683Zm19.561,0a3.867,3.867,0,1,1,3.867-3.867A3.877,3.877,0,0,1,135.218,234.683Z" transform="translate(-80.616 -142.412)" stroke="#000" stroke-width="0.5"/>
    </g>
  </g>
</svg>
