<svg xmlns="http://www.w3.org/2000/svg" width="120" height="119.253" viewBox="0 0 120 119.253">
  <g id="Group_146926" data-name="Group 146926" transform="translate(-0.206 0.271)">
    <g id="Group_146925" data-name="Group 146925" transform="translate(0 0.119)">
      <rect id="Rectangle_22320" data-name="Rectangle 22320" width="120" height="119" transform="translate(0.206 -0.389)" fill="none"/>
    </g>
    <g id="Group_146924" data-name="Group 146924" transform="translate(23.386)">
      <path id="Path_104764" data-name="Path 104764" d="M290.3,136.72l11.042,19.131a1.249,1.249,0,0,1-.442,1.7c-.023.023-.046.023-.07.047a23.333,23.333,0,0,1-31.822-8.578c-.023-.023-.023-.046-.046-.07a23.333,23.333,0,0,1,8.578-31.822,1.2,1.2,0,0,1,1.674.465l11.042,19.131Zm8.276,19.27-20.829-36.075a20.875,20.875,0,0,0-6.625,27.8c.023.023.023.046.046.046a20.879,20.879,0,0,0,27.405,8.229Z" transform="translate(-253.075 -103.673)"/>
      <path id="Path_104765" data-name="Path 104765" d="M393.973,137.471a1.232,1.232,0,1,1-2.464-.046,21.118,21.118,0,0,0-2.79-10.949,20.587,20.587,0,0,0-3.812-4.789,21.566,21.566,0,0,0-5.021-3.487,1.232,1.232,0,0,1,1.093-2.208A23.655,23.655,0,0,1,386.6,119.9a23.383,23.383,0,0,1,6.672,11.251,24.066,24.066,0,0,1,.721,6.346Z" transform="translate(-334.289 -102.89)"/>
      <path id="Path_104766" data-name="Path 104766" d="M405.99,122.441a1.232,1.232,0,1,1-2.464-.046,28.941,28.941,0,0,0-.907-8,29.383,29.383,0,0,0-15.436-19.085,1.232,1.232,0,1,1,1.093-2.208,31.9,31.9,0,0,1,7.671,5.323,31.985,31.985,0,0,1,9.066,15.389,31.773,31.773,0,0,1,.976,8.648Z" transform="translate(-339.521 -86.489)"/>
      <path id="Path_104767" data-name="Path 104767" d="M417.949,107.381a1.232,1.232,0,1,1-2.464-.047,37.366,37.366,0,0,0-1.162-10.3,37.816,37.816,0,0,0-10.809-18.295,37.582,37.582,0,0,0-9.112-6.323,1.232,1.232,0,0,1,1.093-2.208A40.342,40.342,0,0,1,417.949,107.4Z" transform="translate(-344.69 -70.083)"/>
      <path id="Path_104768" data-name="Path 104768" d="M345.871,176.381a1.228,1.228,0,1,1-1.209-2.139l7.183-4.138a1.228,1.228,0,1,1,1.209,2.139Z" transform="translate(-309.085 -141.639)"/>
      <path id="Path_104769" data-name="Path 104769" d="M371.23,158.89a.51.51,0,0,1-.116.07,1.324,1.324,0,0,0-.581.79,1.364,1.364,0,0,0,.093.953.487.487,0,0,0,.093.139,1.412,1.412,0,0,0,.767.558,1.336,1.336,0,0,0,1.023-.139,1.357,1.357,0,0,0,.628-.814,1.337,1.337,0,0,0-.139-1.023,1.357,1.357,0,0,0-.814-.628,1.428,1.428,0,0,0-.976.093Zm-3.068.209a3.819,3.819,0,0,1,1.7-2.255c.07-.047.116-.07.186-.116a3.683,3.683,0,0,1,2.789-.325,3.819,3.819,0,0,1,2.255,1.7.941.941,0,0,1,.116.209,3.849,3.849,0,0,1,.325,2.766,3.782,3.782,0,0,1-1.79,2.325,3.806,3.806,0,0,1-5.137-1.255l-.046-.046-.047-.07a3.839,3.839,0,0,1-.4-2.883Z" transform="translate(-326.259 -131.842)"/>
      <path id="Path_104770" data-name="Path 104770" d="M260.13,218.316l-2.766,1.6,1.418,2.464,2.766-1.6Zm-5.068.07,4.835-2.79c.023-.023.047-.023.07-.046a1.249,1.249,0,0,1,1.7.442l2.65,4.6a1.249,1.249,0,0,1-.442,1.7l-4.905,2.836a1.249,1.249,0,0,1-1.7-.442l-2.65-4.6a1.2,1.2,0,0,1,.465-1.674Z" transform="translate(-244.891 -174.205)"/>
      <path id="Path_104771" data-name="Path 104771" d="M264.16,242.314a1.232,1.232,0,1,1,2.464,0v11.529a1.232,1.232,0,1,1-2.464,0Z" transform="translate(-251.849 -192.624)"/>
      <path id="Path_104772" data-name="Path 104772" d="M252.924,282.91h7.09a1.24,1.24,0,0,1,1.232,1.232v6a1.24,1.24,0,0,1-1.232,1.232h-7.09a1.24,1.24,0,0,1-1.232-1.232v-6A1.24,1.24,0,0,1,252.924,282.91Zm5.835,2.487h-4.6v3.534h4.6Z" transform="translate(-242.91 -222.599)"/>
      <path id="Path_104773" data-name="Path 104773" d="M229.864,305.034a1.238,1.238,0,0,1,2.394.628l-9.112,34.031a1.238,1.238,0,0,1-2.394-.628Z" transform="translate(-220.715 -237.794)"/>
      <path id="Path_104774" data-name="Path 104774" d="M275.444,305.713a1.238,1.238,0,1,1,2.394-.628l8.02,29.962a1.238,1.238,0,0,1-2.394.628Z" transform="translate(-259.901 -237.823)"/>
      <path id="Path_104775" data-name="Path 104775" d="M244.394,346.409a1.232,1.232,0,0,1,0-2.464h11.878a1.232,1.232,0,1,1,0,2.464Z" transform="translate(-236.8 -266.337)"/>
      <path id="Path_104776" data-name="Path 104776" d="M233.234,394.059a1.232,1.232,0,0,1,0-2.464h18.2a1.232,1.232,0,1,1,0,2.464Z" transform="translate(-228.804 -300.484)"/>
      <path id="Path_104777" data-name="Path 104777" d="M243.106,350.274a.926.926,0,1,1,1.162-1.441l14.969,11.947a.926.926,0,0,1-1.162,1.441Z" transform="translate(-236.511 -269.692)"/>
      <path id="Path_104778" data-name="Path 104778" d="M251.2,348.839a.926.926,0,1,1,1.162,1.441L237.788,362.2a.926.926,0,0,1-1.162-1.441Z" transform="translate(-231.869 -269.696)"/>
      <path id="Path_104779" data-name="Path 104779" d="M253.166,313.084a.921.921,0,0,1,1.255-1.348l8.415,7.9a.921.921,0,1,1-1.255,1.348Z" transform="translate(-243.758 -243.078)"/>
      <path id="Path_104780" data-name="Path 104780" d="M257.706,311.706a.921.921,0,1,1,1.279,1.325l-8.206,7.881a.921.921,0,1,1-1.279-1.325Z" transform="translate(-241.144 -243.048)"/>
      <path id="Path_104781" data-name="Path 104781" d="M344.441,351.181a28.208,28.208,0,0,0-3.929-1.976,26.564,26.564,0,0,1-2.069,4.487,20.571,20.571,0,0,1-2.371,3.254,22.1,22.1,0,0,0,7.392-4.765c.325-.325.651-.651.976-1Zm-6.253-2.813c-.279-.093-.581-.186-.86-.256a34.222,34.222,0,0,0-8.02-1.255v11.459c2.673-.511,5.114-2.65,7-5.881a23.462,23.462,0,0,0,1.883-4.068Zm-.186-2.65c.3.093.628.186.93.279a37.111,37.111,0,0,0,1.232-8.927v-3.278a36.594,36.594,0,0,0-1.232-9.019c-.3.093-.628.186-.93.279a36.157,36.157,0,0,1-8.694,1.348V344.37A36.156,36.156,0,0,1,338,345.718Zm3.254,1.116A30.186,30.186,0,0,1,346,349.229a22.131,22.131,0,0,0,4.138-12.25v-3.254A21.9,21.9,0,0,0,346,321.545a30.189,30.189,0,0,1-4.742,2.394,38.629,38.629,0,0,1,1.372,9.833v3.347a38.748,38.748,0,0,1-1.372,9.717Zm-14.435.023a33.261,33.261,0,0,0-8.066,1.232c-.279.07-.558.163-.837.256a24,24,0,0,0,1.906,4.115c1.883,3.208,4.324,5.37,7,5.881Zm-8.741-1.139a36.533,36.533,0,0,1,8.741-1.325V326.424a36.546,36.546,0,0,1-8.741-1.325l-.907-.279a36.937,36.937,0,0,0-1.209,8.9V337a37.721,37.721,0,0,0,1.209,9l.907-.279Zm-2.487,3.464a27.248,27.248,0,0,0-3.952,1.976c.325.349.651.7,1,1.046a22.09,22.09,0,0,0,7.392,4.765,19.551,19.551,0,0,1-2.371-3.254,26.284,26.284,0,0,1-2.092-4.533Zm-5.509.023a30.42,30.42,0,0,1,4.765-2.394A39.358,39.358,0,0,1,313.5,337v-3.347a39.663,39.663,0,0,1,1.348-9.694,30.421,30.421,0,0,1-4.765-2.394,22,22,0,0,0-4.091,12.2v3.254a21.948,21.948,0,0,0,4.091,12.133Zm5.509-27.569a29.111,29.111,0,0,1,2.092-4.533,20.555,20.555,0,0,1,2.371-3.254,22.093,22.093,0,0,0-7.392,4.765c-.349.349-.674.7-1,1.046a28.476,28.476,0,0,0,3.952,1.976Zm4.231-3.278a23.989,23.989,0,0,0-1.906,4.115c.279.093.558.163.837.256a33.259,33.259,0,0,0,8.066,1.232V312.5c-2.673.511-5.114,2.65-7,5.881Zm16.248-4.487a19.549,19.549,0,0,1,2.371,3.254,26.558,26.558,0,0,1,2.069,4.487,26.99,26.99,0,0,0,3.929-1.976,13.174,13.174,0,0,0-.976-1,22.088,22.088,0,0,0-7.392-4.765Zm.232,4.487c-1.883-3.208-4.324-5.37-7-5.881v11.46a33.055,33.055,0,0,0,8.02-1.255c.3-.093.581-.163.86-.256a23.455,23.455,0,0,0-1.883-4.068Zm16.318,15.458v3.208a24.557,24.557,0,0,1-49.094.116v-3.347a24.557,24.557,0,0,1,49.094-.116Z" transform="translate(-280.061 -241.938)"/>
      <path id="Path_104782" data-name="Path 104782" d="M304.764,396.2a1.232,1.232,0,0,1,0-2.464h46.605a1.232,1.232,0,0,1,0,2.464Z" transform="translate(-280.062 -302.017)"/>
    </g>
  </g>
</svg>
