<svg xmlns="http://www.w3.org/2000/svg" width="118" height="119" viewBox="0 0 118 119">
  <g id="Group_146909" data-name="Group 146909" transform="translate(-0.431 -0.253)">
    <rect id="Rectangle_22320" data-name="Rectangle 22320" width="118" height="119" transform="translate(0.431 0.253)" fill="none"/>
    <g id="Group_146910" data-name="Group 146910" transform="translate(16.747 16.36)">
      <path id="Path_104678" data-name="Path 104678" d="M78.75,533.75h85.441v2.756H78.75Z" transform="translate(-78.75 -451.066)"/>
      <path id="Path_104679" data-name="Path 104679" d="M164.191,17.018H78.75V8.75h85.441ZM81.506,14.262h79.929V11.506H81.506Z" transform="translate(-78.75 -8.75)"/>
      <path id="Path_104680" data-name="Path 104680" d="M164.191,244.518H78.75V236.25h85.441Zm-82.685-2.756h79.929v-2.756H81.506Z" transform="translate(-78.75 -200.42)"/>
      <path id="Path_104681" data-name="Path 104681" d="M586.25,52.5h2.756V82.818H586.25Z" transform="translate(-506.317 -45.61)"/>
      <path id="Path_104682" data-name="Path 104682" d="M96.25,52.5h2.756V82.818H96.25Z" transform="translate(-93.493 -45.61)"/>
      <path id="Path_104683" data-name="Path 104683" d="M96.25,280h2.756v41.342H96.25Z" transform="translate(-93.493 -237.28)"/>
      <path id="Path_104684" data-name="Path 104684" d="M586.25,280h2.756v41.342H586.25Z" transform="translate(-506.317 -237.28)"/>
      <path id="Path_104685" data-name="Path 104685" d="M205.8,106.793H183.75V87.5H205.8Zm-19.293-2.756h16.537V90.256H186.506Z" transform="translate(-167.213 -75.097)"/>
      <path id="Path_104686" data-name="Path 104686" d="M192.5,140h19.293v2.756H192.5Z" transform="translate(-174.583 -119.329)"/>
      <path id="Path_104687" data-name="Path 104687" d="M245,96.25h2.756v16.537H245Z" transform="translate(-218.816 -82.469)"/>
      <path id="Path_104688" data-name="Path 104688" d="M398.3,106.793H376.25V87.5H398.3Zm-19.293-2.756h16.537V90.256H379.006Z" transform="translate(-329.398 -75.097)"/>
      <path id="Path_104689" data-name="Path 104689" d="M385,140h19.293v2.756H385Z" transform="translate(-336.762 -119.329)"/>
      <path id="Path_104690" data-name="Path 104690" d="M437.5,96.25h2.756v16.537H437.5Z" transform="translate(-380.998 -82.469)"/>
      <path id="Path_104691" data-name="Path 104691" d="M205.8,360.543H183.75V341.25H205.8Zm-19.293-2.756h16.537V344.006H186.506Z" transform="translate(-167.213 -288.883)"/>
      <path id="Path_104692" data-name="Path 104692" d="M192.5,393.75h19.293v2.756H192.5Z" transform="translate(-174.583 -333.114)"/>
      <path id="Path_104693" data-name="Path 104693" d="M245,350h2.756v16.537H245Z" transform="translate(-218.816 -296.255)"/>
      <path id="Path_104694" data-name="Path 104694" d="M376.25,367.5h2.756v27.561H376.25Z" transform="translate(-329.398 -310.999)"/>
      <path id="Path_104695" data-name="Path 104695" d="M533.75,367.5h2.756v27.561H533.75Z" transform="translate(-462.087 -310.999)"/>
      <path id="Path_104696" data-name="Path 104696" d="M358.75,358.75h33.074v2.756H358.75Z" transform="translate(-314.651 -303.627)"/>
      <path id="Path_104697" data-name="Path 104697" d="M385,393.75h24.806v2.756H385Z" transform="translate(-336.762 -333.114)"/>
      <path id="Path_104698" data-name="Path 104698" d="M428.75,428.75h17.915v2.756H428.75Z" transform="translate(-373.625 -362.602)"/>
      <path id="Path_104699" data-name="Path 104699" d="M385,428.75h4.134v2.756H385Z" transform="translate(-336.762 -362.602)"/>
      <path id="Path_104700" data-name="Path 104700" d="M385,463.75h24.806v2.756H385Z" transform="translate(-336.762 -392.091)"/>
      <path id="Path_104701" data-name="Path 104701" d="M516.25,498.75h4.134v2.756H516.25Z" transform="translate(-447.344 -421.577)"/>
      <path id="Path_104702" data-name="Path 104702" d="M385,498.75h17.915v2.756H385Z" transform="translate(-336.762 -421.577)"/>
    </g>
  </g>
</svg>
