<svg xmlns="http://www.w3.org/2000/svg" width="118" height="119" viewBox="0 0 118 119">
  <g id="Group_146932" data-name="Group 146932" transform="translate(-0.431 0.39)">
    <rect id="Rectangle_22320" data-name="Rectangle 22320" width="118" height="119" transform="translate(0.431 -0.39)" fill="none"/>
    <g id="Group_146931" data-name="Group 146931" transform="translate(13.773 14.753)">
      <path id="Path_104754" data-name="Path 104754" d="M423.742,92.864a1.93,1.93,0,0,0,1.931-1.931V83.741a1.93,1.93,0,0,0-1.931-1.931H416.3V80.3a5.946,5.946,0,1,0-3.862,0V83.74a1.93,1.93,0,0,0,1.931,1.931h7.445v5.261a1.931,1.931,0,0,0,1.931,1.932Zm-9.375-20.243a2.083,2.083,0,1,1-2.084,2.083A2.084,2.084,0,0,1,414.367,72.621Z" transform="translate(-351.403 -61.999)"/>
      <path id="Path_104755" data-name="Path 104755" d="M200.095,81.816a1.93,1.93,0,0,0-1.931,1.931v7.192a1.931,1.931,0,1,0,3.862,0V85.678h7.445a1.93,1.93,0,0,0,1.931-1.931V80.305a5.946,5.946,0,1,0-3.862,0v1.51Zm9.376-9.189a2.083,2.083,0,1,1-2.084,2.082,2.084,2.084,0,0,1,2.084-2.082Z" transform="translate(-179.57 -62.005)"/>
      <path id="Path_104756" data-name="Path 104756" d="M100.436,60.631v43.93a1.93,1.93,0,0,0,1.931,1.931h30.959a8.386,8.386,0,0,0-1.406,2.1,10.9,10.9,0,0,0-3.168-.455c-3.6,0-6.651,1.664-7.987,4.088a10.924,10.924,0,0,0-3.29-.5c-4.813,0-8.728,3.1-8.733,6.9H99.647a1.931,1.931,0,1,0,0,3.862h86.376a1.931,1.931,0,0,0,0-3.862h-9.052c0-3.871-3.84-6.9-8.735-6.9a10.906,10.906,0,0,0-3.283.5c-1.343-2.422-4.394-4.085-7.98-4.085a10.988,10.988,0,0,0-3.19.465,8.374,8.374,0,0,0-1.371-2.114h30.752a1.93,1.93,0,0,0,1.931-1.931V60.631a5.946,5.946,0,1,0-3.862,0v42H144.788V95.142a37.074,37.074,0,0,0,7.819.879c4.047,0,8.606-.777,12.36-3.434,8.842-6.255,9.333-20.186,9.351-20.776a1.933,1.933,0,0,0-1.341-1.893c-.56-.18-13.867-4.349-22.7,1.9a18.732,18.732,0,0,0-5.489,6.363V43.306a5.945,5.945,0,1,0-3.862,0V78.185a18.73,18.73,0,0,0-5.489-6.363c-8.836-6.255-22.141-2.084-22.7-1.9a1.933,1.933,0,0,0-1.341,1.893c.017.589.509,14.52,9.349,20.776,3.756,2.657,8.313,3.434,12.36,3.434a37.082,37.082,0,0,0,7.822-.88v7.488H104.3v-42a5.943,5.943,0,1,0-3.862,0Zm82.726-7.677a2.084,2.084,0,0,1,2.082,2.083,2.059,2.059,0,0,1-1.779,2.02.78.78,0,0,0-.607,0,2.059,2.059,0,0,1-1.78-2.02A2.087,2.087,0,0,1,183.162,52.955ZM148.28,107.986a4.493,4.493,0,0,1,2.276,3.419,1.931,1.931,0,0,0,3,1.518,6.337,6.337,0,0,1,3.421-.921c2.8,0,4.8,1.554,4.846,2.949a1.942,1.942,0,0,0,2.935,1.588c.087-.051.171-.106.371-.2a6.592,6.592,0,0,1,3.11-.747c2.593,0,4.867,1.421,4.874,3.042H112.6c.008-1.441,2.007-3.042,4.873-3.042a6.519,6.519,0,0,1,3.453.934,1.932,1.932,0,0,0,2.979-1.573c.036-1.394,2.034-2.948,4.846-2.948a6.218,6.218,0,0,1,3.394.912,1.932,1.932,0,0,0,2.995-1.513c.134-2.649,3.429-4.8,7.4-4.91h.63a9.615,9.615,0,0,1,5.106,1.494Zm4.226-33.009c5.741-4.066,14.414-2.581,17.83-1.769-.37,3.495-1.854,12.163-7.6,16.228-4.651,3.292-11.215,2.946-15.362,2.264l11.4-8.476a1.931,1.931,0,1,0-2.3-3.1L145.317,88.42c.769-4.137,2.643-10.226,7.19-13.442Zm-9.65-39.345a2.082,2.082,0,1,1-2.084,2.082A2.084,2.084,0,0,1,142.856,35.632ZM122.975,89.438h0c-5.746-4.065-7.23-12.733-7.6-16.228,3.416-.811,12.089-2.3,17.83,1.769,4.547,3.217,6.421,9.306,7.191,13.443l-11.154-8.294a1.931,1.931,0,1,0-2.3,3.1l11.4,8.476c-4.146.682-10.712,1.029-15.361-2.264ZM102.367,52.956a2.081,2.081,0,0,1,.016,4.162c-.006,0-.011,0-.016,0s-.011,0-.016,0a2.081,2.081,0,0,1,.016-4.162Z" transform="translate(-96.426 -31.768)"/>
    </g>
  </g>
</svg>
