<svg xmlns="http://www.w3.org/2000/svg" width="119" height="120" viewBox="0 0 119 120">
  <g id="Group_146919" data-name="Group 146919" transform="translate(-0.283 0.033)">
    <g id="Group_146917" data-name="Group 146917" transform="translate(11.811 7.912)">
      <path id="Path_104715" data-name="Path 104715" d="M355.607,531.037H344.25a1.217,1.217,0,1,1,0-2.433h11.357a1.217,1.217,0,1,1,0,2.433Z" transform="translate(-296.71 -431.356)"/>
      <path id="Path_104716" data-name="Path 104716" d="M462.043,486.706H435.353a1.217,1.217,0,1,1,0-2.433h26.689a1.785,1.785,0,0,0,1.785-1.785V475.5a1.217,1.217,0,0,1,2.433,0v6.992a4.235,4.235,0,0,1-4.218,4.219Z" transform="translate(-371.056 -387.026)"/>
      <path id="Path_104717" data-name="Path 104717" d="M344.6,247.5a1.233,1.233,0,0,1-1.217-1.217V199.327a1.217,1.217,0,0,1,2.433,0V239.32a11.177,11.177,0,0,1,8.778-4.251h35.176V185.407a1.768,1.768,0,0,0-1.785-1.768H353.5a1.2,1.2,0,0,1-1.363-1.055,1.218,1.218,0,0,1,1.071-1.347,9.967,9.967,0,0,1,1.4-.1h33.39a4.218,4.218,0,0,1,4.218,4.2v50.943a1.233,1.233,0,0,1-1.217,1.217H354.6a8.794,8.794,0,0,0-8.778,8.777A1.233,1.233,0,0,1,344.6,247.5Z" transform="translate(-297 -147.816)"/>
      <path id="Path_104718" data-name="Path 104718" d="M138.857,486.706H96.3a5.062,5.062,0,0,1-5.046-5.046V475.5a1.217,1.217,0,0,1,1.217-1.217,1.2,1.2,0,0,1,1.217,1.217v6.165a2.629,2.629,0,0,0,2.612,2.612h42.557a1.217,1.217,0,0,1,0,2.433Z" transform="translate(-91.254 -387.025)"/>
      <path id="Path_104719" data-name="Path 104719" d="M138.855,247.779a1.233,1.233,0,0,1-1.217-1.217,8.794,8.794,0,0,0-8.778-8.777H92.469a1.233,1.233,0,0,1-1.217-1.217V186.532a5.046,5.046,0,0,1,5.046-5.046h32.564a9.965,9.965,0,0,1,1.4.1,1.217,1.217,0,0,1,1.071,1.346,1.2,1.2,0,0,1-1.363,1.055H96.3a2.612,2.612,0,0,0-2.612,2.547V235.35h35.176a11.177,11.177,0,0,1,8.778,4.251V199.607a1.217,1.217,0,0,1,2.433,0V246.56a1.233,1.233,0,0,1-1.217,1.217Z" transform="translate(-91.252 -148.098)"/>
      <path id="Path_104720" data-name="Path 104720" d="M163.961,237.277H140.89a1.217,1.217,0,1,1,0-2.433h23.07a1.217,1.217,0,1,1,0,2.433Z" transform="translate(-130.763 -191.64)"/>
      <path id="Path_104721" data-name="Path 104721" d="M163.961,283.757H140.89a1.217,1.217,0,1,1,0-2.433h23.07a1.217,1.217,0,0,1,0,2.433Z" transform="translate(-130.763 -229.568)"/>
      <path id="Path_104722" data-name="Path 104722" d="M170.441,330.317H140.88a1.217,1.217,0,1,1,0-2.433h29.561a1.217,1.217,0,0,1,0,2.433Z" transform="translate(-130.756 -267.563)"/>
      <path id="Path_104723" data-name="Path 104723" d="M170.441,377.237H140.88a1.217,1.217,0,1,1,0-2.433h29.561a1.217,1.217,0,0,1,0,2.433Z" transform="translate(-130.756 -305.851)"/>
      <path id="Path_104724" data-name="Path 104724" d="M170.441,423.273H140.88a1.217,1.217,0,1,1,0-2.434h29.561a1.217,1.217,0,0,1,0,2.434Z" transform="translate(-130.756 -343.418)"/>
      <path id="Path_104725" data-name="Path 104725" d="M448.65,237.277H425.563a1.217,1.217,0,1,1,0-2.433H448.65a1.217,1.217,0,1,1,0,2.433Z" transform="translate(-363.068 -191.64)"/>
      <path id="Path_104726" data-name="Path 104726" d="M448.65,283.757H425.563a1.217,1.217,0,0,1,0-2.433H448.65a1.217,1.217,0,1,1,0,2.433Z" transform="translate(-363.068 -229.568)"/>
      <path id="Path_104727" data-name="Path 104727" d="M419.858,330.317H390.28a1.217,1.217,0,1,1,0-2.433h29.578a1.217,1.217,0,1,1,0,2.433Z" transform="translate(-334.278 -267.563)"/>
      <path id="Path_104728" data-name="Path 104728" d="M419.858,377.237H390.28a1.217,1.217,0,1,1,0-2.433h29.578a1.217,1.217,0,1,1,0,2.433Z" transform="translate(-334.278 -305.851)"/>
      <path id="Path_104729" data-name="Path 104729" d="M419.858,423.273H390.28a1.217,1.217,0,1,1,0-2.434h29.578a1.217,1.217,0,1,1,0,2.434Z" transform="translate(-334.278 -343.418)"/>
      <path id="Path_104730" data-name="Path 104730" d="M411.676,511.5a1.222,1.222,0,0,1-.665-.195l-1.979-1.363L407,511.286a1.2,1.2,0,0,1-1.249,0,1.218,1.218,0,0,1-.633-1.071v-8.437h0a1.2,1.2,0,0,1,1.217-1.217h5.4a1.2,1.2,0,0,1,1.217,1.217v8.437h0a1.219,1.219,0,0,1-.633,1.071A1.249,1.249,0,0,1,411.676,511.5Zm-2.645-4.234a1.164,1.164,0,0,1,.681.211l.811.535V503.06H407.49v4.949l.811-.535A1.12,1.12,0,0,1,409.031,507.263Z" transform="translate(-347.374 -408.474)"/>
      <path id="Path_104731" data-name="Path 104731" d="M223.937,125.454h-2.353a1.217,1.217,0,0,1,0-2.434h2.353a1.217,1.217,0,0,1,0,2.434Z" transform="translate(-196.612 -100.388)"/>
      <path id="Path_104732" data-name="Path 104732" d="M291.908,94.626H283.8a1.234,1.234,0,0,1-1.2-1.022,15.832,15.832,0,0,0-4.575-8.826A13.906,13.906,0,0,1,273.8,74.751a14.083,14.083,0,0,1,28.166,0,13.906,13.906,0,0,1-4.219,10.026,15.831,15.831,0,0,0-4.576,8.826,1.233,1.233,0,0,1-1.266,1.022Zm-7.171-2.433H290.9a18.213,18.213,0,0,1,5.078-9.15,11.52,11.52,0,0,0,3.488-8.29,11.649,11.649,0,0,0-23.3,0,11.519,11.519,0,0,0,3.488,8.29,18.216,18.216,0,0,1,5.078,9.15Z" transform="translate(-240.218 -49.508)"/>
      <path id="Path_104733" data-name="Path 104733" d="M318.048,242.279H307.826a3.245,3.245,0,0,1-3.245-3.245v-3.5a3.246,3.246,0,0,1,3.245-3.245h10.222a3.246,3.246,0,0,1,3.245,3.245v3.456a3.244,3.244,0,0,1-3.245,3.294Zm-10.221-7.609h0a.86.86,0,0,0-.86.859v3.456a.86.86,0,0,0,.86.86h10.222a.86.86,0,0,0,.859-.86V235.53a.86.86,0,0,0-.859-.859Z" transform="translate(-265.333 -189.551)"/>
      <path id="Path_104734" data-name="Path 104734" d="M344.6,4.868a1.233,1.233,0,0,1-1.217-1.217V1.217a1.217,1.217,0,0,1,2.433,0V3.57a1.232,1.232,0,0,1-1.217,1.3Z" transform="translate(-297 0)"/>
      <path id="Path_104735" data-name="Path 104735" d="M422.535,40.167a1.152,1.152,0,0,1-.86-.357,1.2,1.2,0,0,1,0-1.72l1.623-1.623h0a1.217,1.217,0,1,1,1.72,1.72l-1.623,1.623h0A1.2,1.2,0,0,1,422.535,40.167Z" transform="translate(-360.591 -29.443)"/>
      <path id="Path_104736" data-name="Path 104736" d="M457.187,125.454h-2.353a1.217,1.217,0,0,1,0-2.434h2.353a1.217,1.217,0,0,1,0,2.434Z" transform="translate(-386.951 -100.388)"/>
      <path id="Path_104737" data-name="Path 104737" d="M259.669,40.277a1.2,1.2,0,0,1-.811-.357L257.236,38.3h0a1.217,1.217,0,0,1,0-1.72,1.2,1.2,0,0,1,1.72,0l1.623,1.623h0a1.2,1.2,0,0,1,0,1.72A1.152,1.152,0,0,1,259.669,40.277Z" transform="translate(-226.407 -29.553)"/>
    </g>
    <g id="Group_146918" data-name="Group 146918">
      <rect id="Rectangle_22320" data-name="Rectangle 22320" width="119" height="120" transform="translate(0.283 -0.033)" fill="none"/>
    </g>
  </g>
</svg>
