<svg xmlns="http://www.w3.org/2000/svg" width="118" height="120" viewBox="0 0 118 120">
  <g id="Group_146891" data-name="Group 146891" transform="translate(-0.431 0.033)">
    <g id="Group_146921" data-name="Group 146921">
      <rect id="Rectangle_22320" data-name="Rectangle 22320" width="118" height="120" transform="translate(0.431 -0.033)" fill="none"/>
      <path id="Path_104763" data-name="Path 104763" d="M124.293,102.68h0a11.692,11.692,0,0,0-8.479-5.881,5.019,5.019,0,0,1-2.415-1.164,9.1,9.1,0,0,0-7.746-1.85,9.885,9.885,0,0,0-6.741,5.744,3.207,3.207,0,0,0-.273.935,11.513,11.513,0,0,0,.088,3.745.947.947,0,0,1-.561,1.115,9.055,9.055,0,0,0-6.461,9.885,5.936,5.936,0,0,1-.365,2.962,11.756,11.756,0,0,0,12.746,15.945,11.347,11.347,0,0,0,9.519,5.128c.166,0,.334,0,.5-.012,4.557-.2,8.534-3.1,10.641-7.765a3.279,3.279,0,0,0,.258-.919,13.619,13.619,0,0,0-1.138-7.7,11.413,11.413,0,0,0-.892-6.8,11.718,11.718,0,0,0,1.317-13.37Zm-4.683,11.792a1.763,1.763,0,0,0-.3,2.225l.112.176c.034.051.068.1.1.152a7.876,7.876,0,0,1,.85,5.362,2.863,2.863,0,0,0,.262,1.868,9.937,9.937,0,0,1,.9,5.767c-1.569,3.475-4.33,5.549-7.576,5.688a7.871,7.871,0,0,1-7.225-4.029c-.03-.055-.056-.11-.081-.166l-.089-.186a1.766,1.766,0,0,0-1.577-.975,1.743,1.743,0,0,0-.477.066,8.229,8.229,0,0,1-9.885-10.954,9.483,9.483,0,0,0,.58-4.726,5.547,5.547,0,0,1,3.975-6.04,4.436,4.436,0,0,0,3.011-5.175,8.285,8.285,0,0,1-.08-2.506,6.445,6.445,0,0,1,4.322-3.8,5.555,5.555,0,0,1,4.726,1.13,8.478,8.478,0,0,0,4.123,1.929,8.187,8.187,0,0,1,5.939,4.118h0a8.215,8.215,0,0,1-1.608,10.071Zm60.843,20.4,5.125-2.979a2.255,2.255,0,0,0,1.105-1.679,2.917,2.917,0,0,0-.892-2.4l-2.528-2.529a2.871,2.871,0,0,0-2.539-.867L173,125.894l-7.724-9.237,17.594-11.095a2.51,2.51,0,0,0,1.153-1.849,2.7,2.7,0,0,0-.789-2.214l-2.7-2.7a2.7,2.7,0,0,0-2.583-.722l-18.609,4.93a42.029,42.029,0,0,0-69.93-31.292,1.747,1.747,0,0,0-.585.524,42.045,42.045,0,0,0,46.727,68.822,2.728,2.728,0,0,0,.8,1.912l2.7,2.7a2.705,2.705,0,0,0,1.916.807,2.541,2.541,0,0,0,.3-.017,2.5,2.5,0,0,0,1.851-1.153l11.093-17.59,9.238,7.724-1.476,7.724a2.867,2.867,0,0,0,.869,2.537l2.528,2.53a3,3,0,0,0,2.084.91,2.447,2.447,0,0,0,.319-.021,2.257,2.257,0,0,0,1.673-1.1l2.977-5.121a4.813,4.813,0,0,0,2.783.879,6.1,6.1,0,0,0,4.273-1.857,5.531,5.531,0,0,0,.973-7.054Zm-2.092-33.255,1.607,1.606-16.974,10.7-5.64-6.745ZM143.1,74.6a38.446,38.446,0,0,1,12.712,28.577c0,.257-.015.51-.02.766l-.941.249-6.708-8.021c-2.282-2.436-6.872-4.32-10.677-4.384-.371-.008-.728.006-1.078.031a11.237,11.237,0,0,1,3.388-12.77A12.5,12.5,0,0,0,143.1,74.6Zm-51.2-.39a38.376,38.376,0,0,1,29.515-9.342c.023.011.042.026.065.036a5.913,5.913,0,0,1,3.287,3.845,6.891,6.891,0,0,1-1.2,5.817l-.125.127c-3.052,2.222-5.567,1.539-6.8.926a3.327,3.327,0,0,0-2.613-.084,8.537,8.537,0,0,1-3.352.682,3.1,3.1,0,0,0-2.9,1.966,8.262,8.262,0,0,1-4.906,4.743,9.06,9.06,0,0,1-7.506-.834,5.619,5.619,0,0,1-2.148-2.1,9.453,9.453,0,0,1-1.311-5.78Zm44.77,62.245A38.509,38.509,0,0,1,88.562,77.522a13.884,13.884,0,0,0,1.6,4.225,9.156,9.156,0,0,0,3.488,3.429,13.261,13.261,0,0,0,6.467,1.755,11.752,11.752,0,0,0,10.835-7.186,12.012,12.012,0,0,0,4.289-.887c3.323,1.572,7.114,1.062,10.427-1.415a2.424,2.424,0,0,0,.237-.212l.289-.294a1.742,1.742,0,0,0,.171-.2,10.375,10.375,0,0,0,1.813-8.919,9.441,9.441,0,0,0-.708-1.793,38.429,38.429,0,0,1,12.842,6.28c-.054.112-.117.225-.166.336a9.439,9.439,0,0,1-2.593,3.683,14.761,14.761,0,0,0-4.568,16.448,6.607,6.607,0,0,0-1.531,1.126,8.074,8.074,0,0,0-2.1,6.019,16.505,16.505,0,0,0,4.458,10.742l7.946,6.644Zm4.1,5.953-1.606-1.607,5.564-21.006,6.745,5.64ZM167.124,145l-1.6-1.606,1.025-5.365,3.117,2.606Zm9.862-5.572a2.09,2.09,0,0,1-2.62.546l-38.222-31.958a12.972,12.972,0,0,1-3.269-8.161,4.845,4.845,0,0,1,1.071-3.469,4.732,4.732,0,0,1,3.325-1.072h.144a13,13,0,0,1,8.095,3.194l32.023,38.3a2.091,2.091,0,0,1-.545,2.623Zm-1.4-10.443,5.367-1.026,1.606,1.606-4.366,2.537Z" transform="translate(-70.37 -45.772)"/>
    </g>
  </g>
</svg>
