<svg xmlns="http://www.w3.org/2000/svg" width="108.281" height="109.48" viewBox="0 0 108.281 109.48">
  <g id="Group_146822" data-name="Group 146822" transform="matrix(-0.017, -1, 1, -0.017, -4234.01, 4269.957)">
    <g id="Group_146817" data-name="Group 146817" transform="translate(4085.031 4307.032)">
      <path id="Polygon_1" data-name="Polygon 1" d="M37.384,2.555a4,4,0,0,1,5.464,0L72.83,30.589A4,4,0,0,1,70.1,37.511H10.134A4,4,0,0,1,7.4,30.589Z" transform="matrix(0.809, -0.588, 0.588, 0.809, 22.377, 77.653)" fill="lime"/>
      <g id="Polygon_2" data-name="Polygon 2" transform="translate(85.573 28.735) rotate(140)" fill="none">
        <path d="M37.384,2.555a4,4,0,0,1,5.464,0L72.83,30.59A4,4,0,0,1,70.1,37.511H10.134A4,4,0,0,1,7.4,30.59Z" stroke="none"/>
        <path d="M 40.11608123779297 4.476272583007812 C 39.9360237121582 4.476272583007812 39.6713752746582 4.523036956787109 39.4330940246582 4.745857238769531 L 9.451339721679688 32.78081130981445 C 9.04058837890625 33.16488265991211 9.0902099609375 33.58966064453125 9.20416259765625 33.87836456298828 C 9.318115234375 34.16708374023438 9.571998596191406 34.51123428344727 10.13433074951172 34.51123428344727 L 70.09783172607422 34.51123428344727 C 70.66017150878906 34.51123428344727 70.91404724121094 34.16708374023438 71.02799987792969 33.87836456298828 C 71.14195251464844 33.58966064453125 71.19157409667969 33.16488265991211 70.78083801269531 32.78081130981445 L 40.79907989501953 4.745857238769531 C 40.56079864501953 4.523036956787109 40.29613876342773 4.476272583007812 40.11608123779297 4.476272583007812 M 40.1160888671875 1.476272583007812 C 41.09768295288086 1.476272583007812 42.07927703857422 1.835712432861328 42.84806823730469 2.554588317871094 L 72.82981872558594 30.58954238891602 C 75.48027801513672 33.06790542602539 73.72651672363281 37.51123428344727 70.09783172607422 37.51123428344727 L 10.13433074951172 37.51123428344727 C 6.505661010742188 37.51123428344727 4.751884460449219 33.06790542602539 7.402351379394531 30.58954238891602 L 37.38410568237305 2.554588317871094 C 38.15290069580078 1.835712432861328 39.13449478149414 1.476272583007812 40.1160888671875 1.476272583007812 Z" stroke="none" fill="#fff"/>
      </g>
    </g>
  </g>
</svg>
