<svg xmlns="http://www.w3.org/2000/svg" width="150.938" height="133.208" viewBox="0 0 150.938 133.208">
  <g id="Group_146841" data-name="Group 146841" transform="translate(-7262.454 -4630)">
    <g id="Group_146839" data-name="Group 146839" transform="translate(7262.454 4630)">
      <path id="Path_104635" data-name="Path 104635" d="M14.794,0,32.947,84.432,0,83.173Z" transform="translate(42.816 120.437) rotate(-120)" fill="lime"/>
      <g id="Polygon_3" data-name="Polygon 3" fill="none">
        <path d="M60.959,23.767a17,17,0,0,1,29.02,0l45.173,73.995a17,17,0,0,1-14.51,25.858H30.3a17,17,0,0,1-14.51-25.858Z" stroke="none"/>
        <path d="M 75.46905517578125 23.62555694580078 C 72.25958251953125 23.62555694580078 69.45973205566406 25.19666290283203 67.78740692138672 27.93598175048828 L 22.61422729492188 101.9309387207031 C 20.13583374023438 105.990608215332 21.6717529296875 109.6428833007812 22.44712829589844 111.0247116088867 C 23.22252655029297 112.4065322875977 25.53948211669922 115.6205139160156 30.29588317871094 115.6205139160156 L 120.6422271728516 115.6205139160156 C 125.3978805541992 115.6205139160156 127.7149276733398 112.4062347412109 128.4903869628906 111.024284362793 C 129.2658081054688 109.6423873901367 130.8018493652344 105.9899826049805 128.3238525390625 101.9309387207031 L 83.15073394775391 27.93601226806641 C 81.47837829589844 25.19666290283203 78.67850494384766 23.62555694580078 75.46905517578125 23.62555694580078 M 75.46904754638672 15.62555694580078 C 81.06709289550781 15.62555694580078 86.66514587402344 18.33953857421875 89.97885131835938 23.76748657226562 L 135.1520080566406 97.76243591308594 C 142.0677490234375 109.0906372070312 133.9283447265625 123.6103363037109 120.642204284668 123.6205139160156 L 30.29588317871094 123.6205139160156 C 17.02352905273438 123.6205139160156 8.870361328125 109.0906372070312 15.78608703613281 97.76243591308594 L 60.95925140380859 23.76748657226562 C 64.27295684814453 18.33953857421875 69.87100219726562 15.62555694580078 75.46904754638672 15.62555694580078 Z" stroke="none" fill="#fff"/>
      </g>
    </g>
    <g id="Group_146840" data-name="Group 146840" transform="translate(7268.56 4631.101)">
      <g id="Group_146835" data-name="Group 146835">
        <rect id="Rectangle_22309" data-name="Rectangle 22309" width="132.107" height="132.107" fill="none"/>
      </g>
    </g>
  </g>
</svg>
